<mxfile host="app.diagrams.net" agent="Mozilla/5.0 (Windows NT 10.0; Win64; x64) AppleWebKit/537.36 (KHTML, like Gecko) Chrome/136.0.0.0 Safari/537.36" version="27.0.8">
  <diagram name="Page-1" id="Z3fttdgqQ3Dp7GkYKVA5">
    <mxGraphModel dx="1575" dy="1617" grid="1" gridSize="10" guides="1" tooltips="1" connect="1" arrows="1" fold="1" page="0" pageScale="1" pageWidth="850" pageHeight="1100" math="0" shadow="0">
      <root>
        <mxCell id="0" />
        <mxCell id="1" parent="0" />
        <mxCell id="aigyrh1YFZ54tX2DjFnP-2" value="" style="rounded=0;whiteSpace=wrap;html=1;" parent="1" vertex="1">
          <mxGeometry x="-580" y="-960" width="540" height="640" as="geometry" />
        </mxCell>
        <mxCell id="aigyrh1YFZ54tX2DjFnP-3" value="Admin&lt;div&gt;&lt;br&gt;&lt;/div&gt;" style="shape=umlActor;verticalLabelPosition=bottom;verticalAlign=top;html=1;outlineConnect=0;" parent="1" vertex="1">
          <mxGeometry x="-750" y="-700" width="30" height="60" as="geometry" />
        </mxCell>
        <mxCell id="aigyrh1YFZ54tX2DjFnP-5" value="Login" style="ellipse;whiteSpace=wrap;html=1;" parent="1" vertex="1">
          <mxGeometry x="-530" y="-940" width="130" height="60" as="geometry" />
        </mxCell>
        <mxCell id="aigyrh1YFZ54tX2DjFnP-6" value="Edit User Details" style="ellipse;whiteSpace=wrap;html=1;" parent="1" vertex="1">
          <mxGeometry x="-530" y="-860" width="130" height="60" as="geometry" />
        </mxCell>
        <mxCell id="aigyrh1YFZ54tX2DjFnP-7" value="Add Users" style="ellipse;whiteSpace=wrap;html=1;" parent="1" vertex="1">
          <mxGeometry x="-530" y="-770" width="130" height="60" as="geometry" />
        </mxCell>
        <mxCell id="aigyrh1YFZ54tX2DjFnP-8" value="Delete Users" style="ellipse;whiteSpace=wrap;html=1;" parent="1" vertex="1">
          <mxGeometry x="-530" y="-690" width="130" height="60" as="geometry" />
        </mxCell>
        <mxCell id="aigyrh1YFZ54tX2DjFnP-9" value="" style="ellipse;whiteSpace=wrap;html=1;" parent="1" vertex="1">
          <mxGeometry x="-530" y="-600" width="130" height="60" as="geometry" />
        </mxCell>
        <mxCell id="aigyrh1YFZ54tX2DjFnP-10" value="" style="ellipse;whiteSpace=wrap;html=1;" parent="1" vertex="1">
          <mxGeometry x="-320" y="-770" width="130" height="60" as="geometry" />
        </mxCell>
        <mxCell id="DsBzVv_zIQEoRQzaktac-1" value="" style="endArrow=none;html=1;rounded=0;exitX=1;exitY=0.3333333333333333;exitDx=0;exitDy=0;exitPerimeter=0;entryX=0;entryY=0.5;entryDx=0;entryDy=0;" parent="1" source="aigyrh1YFZ54tX2DjFnP-3" target="aigyrh1YFZ54tX2DjFnP-5" edge="1">
          <mxGeometry width="50" height="50" relative="1" as="geometry">
            <mxPoint x="-420" y="-670" as="sourcePoint" />
            <mxPoint x="-370" y="-720" as="targetPoint" />
          </mxGeometry>
        </mxCell>
        <mxCell id="DsBzVv_zIQEoRQzaktac-2" value="" style="endArrow=none;html=1;rounded=0;entryX=0;entryY=0.5;entryDx=0;entryDy=0;" parent="1" target="aigyrh1YFZ54tX2DjFnP-6" edge="1">
          <mxGeometry width="50" height="50" relative="1" as="geometry">
            <mxPoint x="-720" y="-680" as="sourcePoint" />
            <mxPoint x="-520" y="-900" as="targetPoint" />
          </mxGeometry>
        </mxCell>
        <mxCell id="DsBzVv_zIQEoRQzaktac-3" value="" style="endArrow=none;html=1;rounded=0;entryX=0;entryY=0.5;entryDx=0;entryDy=0;" parent="1" target="aigyrh1YFZ54tX2DjFnP-7" edge="1">
          <mxGeometry width="50" height="50" relative="1" as="geometry">
            <mxPoint x="-730" y="-670" as="sourcePoint" />
            <mxPoint x="-510" y="-890" as="targetPoint" />
          </mxGeometry>
        </mxCell>
        <mxCell id="DsBzVv_zIQEoRQzaktac-4" value="" style="endArrow=none;html=1;rounded=0;exitX=0.5;exitY=0.5;exitDx=0;exitDy=0;exitPerimeter=0;entryX=0;entryY=0.5;entryDx=0;entryDy=0;" parent="1" source="aigyrh1YFZ54tX2DjFnP-3" target="aigyrh1YFZ54tX2DjFnP-8" edge="1">
          <mxGeometry width="50" height="50" relative="1" as="geometry">
            <mxPoint x="-690" y="-650" as="sourcePoint" />
            <mxPoint x="-500" y="-880" as="targetPoint" />
          </mxGeometry>
        </mxCell>
        <mxCell id="DsBzVv_zIQEoRQzaktac-5" value="" style="endArrow=none;html=1;rounded=0;exitX=1;exitY=1;exitDx=0;exitDy=0;exitPerimeter=0;entryX=0;entryY=0.5;entryDx=0;entryDy=0;" parent="1" source="aigyrh1YFZ54tX2DjFnP-3" target="aigyrh1YFZ54tX2DjFnP-9" edge="1">
          <mxGeometry width="50" height="50" relative="1" as="geometry">
            <mxPoint x="-680" y="-640" as="sourcePoint" />
            <mxPoint x="-490" y="-870" as="targetPoint" />
          </mxGeometry>
        </mxCell>
        <mxCell id="DsBzVv_zIQEoRQzaktac-6" value="" style="rounded=0;whiteSpace=wrap;html=1;movable=0;resizable=0;rotatable=0;deletable=0;editable=0;locked=1;connectable=0;" parent="1" vertex="1">
          <mxGeometry x="190" y="-960" width="540" height="640" as="geometry" />
        </mxCell>
        <mxCell id="DsBzVv_zIQEoRQzaktac-7" style="rounded=0;orthogonalLoop=1;jettySize=auto;html=1;exitX=1;exitY=0.3333333333333333;exitDx=0;exitDy=0;exitPerimeter=0;entryX=0;entryY=0.5;entryDx=0;entryDy=0;" parent="1" source="DsBzVv_zIQEoRQzaktac-8" target="DsBzVv_zIQEoRQzaktac-10" edge="1">
          <mxGeometry relative="1" as="geometry" />
        </mxCell>
        <mxCell id="6BwgNoAzmTN-jcqfXPyp-20" style="rounded=0;orthogonalLoop=1;jettySize=auto;html=1;entryX=0;entryY=0.5;entryDx=0;entryDy=0;" edge="1" parent="1" source="DsBzVv_zIQEoRQzaktac-8" target="DsBzVv_zIQEoRQzaktac-9">
          <mxGeometry relative="1" as="geometry" />
        </mxCell>
        <mxCell id="DsBzVv_zIQEoRQzaktac-8" value="&lt;div&gt;Student&lt;/div&gt;&lt;div&gt;&lt;br&gt;&lt;/div&gt;" style="shape=umlActor;verticalLabelPosition=bottom;verticalAlign=top;html=1;outlineConnect=0;" parent="1" vertex="1">
          <mxGeometry x="20" y="-700" width="30" height="60" as="geometry" />
        </mxCell>
        <mxCell id="DsBzVv_zIQEoRQzaktac-9" value="Login" style="ellipse;whiteSpace=wrap;html=1;" parent="1" vertex="1">
          <mxGeometry x="240" y="-940" width="130" height="60" as="geometry" />
        </mxCell>
        <mxCell id="6BwgNoAzmTN-jcqfXPyp-13" style="rounded=0;orthogonalLoop=1;jettySize=auto;html=1;exitX=1;exitY=0.5;exitDx=0;exitDy=0;entryX=0;entryY=0.5;entryDx=0;entryDy=0;" edge="1" parent="1" source="DsBzVv_zIQEoRQzaktac-10" target="6BwgNoAzmTN-jcqfXPyp-12">
          <mxGeometry relative="1" as="geometry" />
        </mxCell>
        <mxCell id="DsBzVv_zIQEoRQzaktac-10" value="courses" style="ellipse;whiteSpace=wrap;html=1;" parent="1" vertex="1">
          <mxGeometry x="240" y="-830" width="130" height="60" as="geometry" />
        </mxCell>
        <mxCell id="6BwgNoAzmTN-jcqfXPyp-14" style="rounded=0;orthogonalLoop=1;jettySize=auto;html=1;exitX=1;exitY=0.5;exitDx=0;exitDy=0;entryX=0;entryY=0.5;entryDx=0;entryDy=0;" edge="1" parent="1" source="DsBzVv_zIQEoRQzaktac-11" target="6BwgNoAzmTN-jcqfXPyp-1">
          <mxGeometry relative="1" as="geometry" />
        </mxCell>
        <mxCell id="6BwgNoAzmTN-jcqfXPyp-15" style="rounded=0;orthogonalLoop=1;jettySize=auto;html=1;entryX=0;entryY=0.5;entryDx=0;entryDy=0;" edge="1" parent="1" source="DsBzVv_zIQEoRQzaktac-11" target="6BwgNoAzmTN-jcqfXPyp-4">
          <mxGeometry relative="1" as="geometry" />
        </mxCell>
        <mxCell id="6BwgNoAzmTN-jcqfXPyp-16" style="rounded=0;orthogonalLoop=1;jettySize=auto;html=1;entryX=0;entryY=0.5;entryDx=0;entryDy=0;" edge="1" parent="1" source="DsBzVv_zIQEoRQzaktac-11" target="6BwgNoAzmTN-jcqfXPyp-2">
          <mxGeometry relative="1" as="geometry" />
        </mxCell>
        <mxCell id="DsBzVv_zIQEoRQzaktac-11" value="Assignments" style="ellipse;whiteSpace=wrap;html=1;" parent="1" vertex="1">
          <mxGeometry x="250" y="-680" width="130" height="60" as="geometry" />
        </mxCell>
        <mxCell id="6BwgNoAzmTN-jcqfXPyp-17" style="rounded=0;orthogonalLoop=1;jettySize=auto;html=1;entryX=0;entryY=0.5;entryDx=0;entryDy=0;" edge="1" parent="1" source="DsBzVv_zIQEoRQzaktac-12" target="6BwgNoAzmTN-jcqfXPyp-11">
          <mxGeometry relative="1" as="geometry" />
        </mxCell>
        <mxCell id="DsBzVv_zIQEoRQzaktac-12" value="Profile" style="ellipse;whiteSpace=wrap;html=1;" parent="1" vertex="1">
          <mxGeometry x="260" y="-525" width="130" height="60" as="geometry" />
        </mxCell>
        <mxCell id="DsBzVv_zIQEoRQzaktac-14" style="rounded=0;orthogonalLoop=1;jettySize=auto;html=1;exitX=1;exitY=0.3333333333333333;exitDx=0;exitDy=0;exitPerimeter=0;entryX=0;entryY=0.5;entryDx=0;entryDy=0;" parent="1" target="DsBzVv_zIQEoRQzaktac-11" edge="1">
          <mxGeometry relative="1" as="geometry">
            <mxPoint x="60" y="-670" as="sourcePoint" />
            <mxPoint x="250" y="-820" as="targetPoint" />
          </mxGeometry>
        </mxCell>
        <mxCell id="DsBzVv_zIQEoRQzaktac-15" style="rounded=0;orthogonalLoop=1;jettySize=auto;html=1;entryX=0;entryY=0.5;entryDx=0;entryDy=0;" parent="1" target="DsBzVv_zIQEoRQzaktac-12" edge="1">
          <mxGeometry relative="1" as="geometry">
            <mxPoint x="60" y="-660" as="sourcePoint" />
            <mxPoint x="260" y="-810" as="targetPoint" />
          </mxGeometry>
        </mxCell>
        <mxCell id="DsBzVv_zIQEoRQzaktac-17" value="" style="rounded=0;whiteSpace=wrap;html=1;" parent="1" vertex="1">
          <mxGeometry x="-580" y="-290" width="540" height="640" as="geometry" />
        </mxCell>
        <mxCell id="DsBzVv_zIQEoRQzaktac-18" style="rounded=0;orthogonalLoop=1;jettySize=auto;html=1;exitX=1;exitY=0.3333333333333333;exitDx=0;exitDy=0;exitPerimeter=0;entryX=0;entryY=0.5;entryDx=0;entryDy=0;" parent="1" source="DsBzVv_zIQEoRQzaktac-19" target="DsBzVv_zIQEoRQzaktac-21" edge="1">
          <mxGeometry relative="1" as="geometry" />
        </mxCell>
        <mxCell id="6BwgNoAzmTN-jcqfXPyp-22" style="rounded=0;orthogonalLoop=1;jettySize=auto;html=1;entryX=0;entryY=0.5;entryDx=0;entryDy=0;" edge="1" parent="1" source="DsBzVv_zIQEoRQzaktac-19" target="DsBzVv_zIQEoRQzaktac-20">
          <mxGeometry relative="1" as="geometry" />
        </mxCell>
        <mxCell id="DsBzVv_zIQEoRQzaktac-19" value="&lt;div&gt;Lecturer&lt;/div&gt;" style="shape=umlActor;verticalLabelPosition=bottom;verticalAlign=top;html=1;outlineConnect=0;" parent="1" vertex="1">
          <mxGeometry x="-750" y="-30" width="30" height="60" as="geometry" />
        </mxCell>
        <mxCell id="DsBzVv_zIQEoRQzaktac-20" value="Login" style="ellipse;whiteSpace=wrap;html=1;" parent="1" vertex="1">
          <mxGeometry x="-530" y="-270" width="130" height="60" as="geometry" />
        </mxCell>
        <mxCell id="DsBzVv_zIQEoRQzaktac-21" value="Add Courses" style="ellipse;whiteSpace=wrap;html=1;" parent="1" vertex="1">
          <mxGeometry x="-530" y="-190" width="130" height="60" as="geometry" />
        </mxCell>
        <mxCell id="DsBzVv_zIQEoRQzaktac-22" value="" style="ellipse;whiteSpace=wrap;html=1;" parent="1" vertex="1">
          <mxGeometry x="-530" y="-100" width="130" height="60" as="geometry" />
        </mxCell>
        <mxCell id="DsBzVv_zIQEoRQzaktac-23" value="" style="ellipse;whiteSpace=wrap;html=1;" parent="1" vertex="1">
          <mxGeometry x="-530" y="-10" width="130" height="60" as="geometry" />
        </mxCell>
        <mxCell id="DsBzVv_zIQEoRQzaktac-24" value="" style="ellipse;whiteSpace=wrap;html=1;" parent="1" vertex="1">
          <mxGeometry x="-530" y="70" width="130" height="60" as="geometry" />
        </mxCell>
        <mxCell id="DsBzVv_zIQEoRQzaktac-25" style="rounded=0;orthogonalLoop=1;jettySize=auto;html=1;exitX=1;exitY=0.3333333333333333;exitDx=0;exitDy=0;exitPerimeter=0;entryX=0;entryY=0.5;entryDx=0;entryDy=0;" parent="1" target="DsBzVv_zIQEoRQzaktac-22" edge="1">
          <mxGeometry relative="1" as="geometry">
            <mxPoint x="-710" as="sourcePoint" />
            <mxPoint x="-520" y="-150" as="targetPoint" />
          </mxGeometry>
        </mxCell>
        <mxCell id="DsBzVv_zIQEoRQzaktac-26" style="rounded=0;orthogonalLoop=1;jettySize=auto;html=1;entryX=0;entryY=0.5;entryDx=0;entryDy=0;" parent="1" target="DsBzVv_zIQEoRQzaktac-23" edge="1">
          <mxGeometry relative="1" as="geometry">
            <mxPoint x="-710" y="10" as="sourcePoint" />
            <mxPoint x="-510" y="-140" as="targetPoint" />
          </mxGeometry>
        </mxCell>
        <mxCell id="DsBzVv_zIQEoRQzaktac-27" style="rounded=0;orthogonalLoop=1;jettySize=auto;html=1;entryX=0.006;entryY=0.633;entryDx=0;entryDy=0;entryPerimeter=0;" parent="1" target="DsBzVv_zIQEoRQzaktac-24" edge="1">
          <mxGeometry relative="1" as="geometry">
            <mxPoint x="-710" y="20" as="sourcePoint" />
            <mxPoint x="-500" y="-130" as="targetPoint" />
          </mxGeometry>
        </mxCell>
        <mxCell id="6BwgNoAzmTN-jcqfXPyp-24" value="" style="edgeStyle=orthogonalEdgeStyle;rounded=0;orthogonalLoop=1;jettySize=auto;html=1;" edge="1" parent="1" source="F561LGEjZbDJHINuN_-6-1" target="6BwgNoAzmTN-jcqfXPyp-23">
          <mxGeometry relative="1" as="geometry" />
        </mxCell>
        <mxCell id="F561LGEjZbDJHINuN_-6-1" value="Start" style="ellipse;whiteSpace=wrap;html=1;" parent="1" vertex="1">
          <mxGeometry x="575" y="-30" width="120" height="80" as="geometry" />
        </mxCell>
        <mxCell id="6BwgNoAzmTN-jcqfXPyp-1" value="View submission status" style="ellipse;whiteSpace=wrap;html=1;" vertex="1" parent="1">
          <mxGeometry x="500" y="-710" width="120" height="50" as="geometry" />
        </mxCell>
        <mxCell id="6BwgNoAzmTN-jcqfXPyp-2" value="Download Assignments" style="ellipse;whiteSpace=wrap;html=1;" vertex="1" parent="1">
          <mxGeometry x="500" y="-600" width="120" height="50" as="geometry" />
        </mxCell>
        <mxCell id="6BwgNoAzmTN-jcqfXPyp-4" value="Submit Assignments" style="ellipse;whiteSpace=wrap;html=1;" vertex="1" parent="1">
          <mxGeometry x="500" y="-655" width="120" height="50" as="geometry" />
        </mxCell>
        <mxCell id="6BwgNoAzmTN-jcqfXPyp-5" style="rounded=0;orthogonalLoop=1;jettySize=auto;html=1;exitX=1;exitY=0.5;exitDx=0;exitDy=0;entryX=0;entryY=0.5;entryDx=0;entryDy=0;" edge="1" parent="1" source="DsBzVv_zIQEoRQzaktac-10" target="6BwgNoAzmTN-jcqfXPyp-6">
          <mxGeometry relative="1" as="geometry" />
        </mxCell>
        <mxCell id="6BwgNoAzmTN-jcqfXPyp-6" value="Access lessons" style="ellipse;whiteSpace=wrap;html=1;" vertex="1" parent="1">
          <mxGeometry x="490" y="-850" width="110" height="40" as="geometry" />
        </mxCell>
        <mxCell id="6BwgNoAzmTN-jcqfXPyp-11" value="View profile" style="ellipse;whiteSpace=wrap;html=1;" vertex="1" parent="1">
          <mxGeometry x="490" y="-520" width="110" height="50" as="geometry" />
        </mxCell>
        <mxCell id="6BwgNoAzmTN-jcqfXPyp-12" value="Access lessons" style="ellipse;whiteSpace=wrap;html=1;" vertex="1" parent="1">
          <mxGeometry x="490" y="-800" width="110" height="40" as="geometry" />
        </mxCell>
        <mxCell id="6BwgNoAzmTN-jcqfXPyp-18" style="rounded=0;orthogonalLoop=1;jettySize=auto;html=1;entryX=0;entryY=0.5;entryDx=0;entryDy=0;exitX=1;exitY=0.5;exitDx=0;exitDy=0;" edge="1" parent="1" target="6BwgNoAzmTN-jcqfXPyp-19" source="DsBzVv_zIQEoRQzaktac-12">
          <mxGeometry relative="1" as="geometry">
            <mxPoint x="390" y="-435" as="sourcePoint" />
          </mxGeometry>
        </mxCell>
        <mxCell id="6BwgNoAzmTN-jcqfXPyp-19" value="Edit Profile" style="ellipse;whiteSpace=wrap;html=1;" vertex="1" parent="1">
          <mxGeometry x="490" y="-460" width="110" height="50" as="geometry" />
        </mxCell>
        <mxCell id="6BwgNoAzmTN-jcqfXPyp-30" value="" style="edgeStyle=orthogonalEdgeStyle;rounded=0;orthogonalLoop=1;jettySize=auto;html=1;" edge="1" parent="1" source="6BwgNoAzmTN-jcqfXPyp-23" target="6BwgNoAzmTN-jcqfXPyp-29">
          <mxGeometry relative="1" as="geometry" />
        </mxCell>
        <mxCell id="6BwgNoAzmTN-jcqfXPyp-23" value="Login" style="whiteSpace=wrap;html=1;" vertex="1" parent="1">
          <mxGeometry x="575" y="90" width="120" height="60" as="geometry" />
        </mxCell>
        <mxCell id="6BwgNoAzmTN-jcqfXPyp-32" value="" style="edgeStyle=orthogonalEdgeStyle;rounded=0;orthogonalLoop=1;jettySize=auto;html=1;" edge="1" parent="1" source="6BwgNoAzmTN-jcqfXPyp-29" target="6BwgNoAzmTN-jcqfXPyp-31">
          <mxGeometry relative="1" as="geometry" />
        </mxCell>
        <mxCell id="6BwgNoAzmTN-jcqfXPyp-29" value="Login Success?" style="rhombus;whiteSpace=wrap;html=1;" vertex="1" parent="1">
          <mxGeometry x="595" y="220" width="80" height="80" as="geometry" />
        </mxCell>
        <mxCell id="6BwgNoAzmTN-jcqfXPyp-34" value="" style="edgeStyle=orthogonalEdgeStyle;rounded=0;orthogonalLoop=1;jettySize=auto;html=1;" edge="1" parent="1" source="6BwgNoAzmTN-jcqfXPyp-31" target="6BwgNoAzmTN-jcqfXPyp-33">
          <mxGeometry relative="1" as="geometry" />
        </mxCell>
        <mxCell id="6BwgNoAzmTN-jcqfXPyp-31" value="homepage" style="whiteSpace=wrap;html=1;" vertex="1" parent="1">
          <mxGeometry x="575" y="390" width="120" height="60" as="geometry" />
        </mxCell>
        <mxCell id="6BwgNoAzmTN-jcqfXPyp-36" value="" style="edgeStyle=orthogonalEdgeStyle;rounded=0;orthogonalLoop=1;jettySize=auto;html=1;" edge="1" parent="1" source="6BwgNoAzmTN-jcqfXPyp-33" target="6BwgNoAzmTN-jcqfXPyp-35">
          <mxGeometry relative="1" as="geometry" />
        </mxCell>
        <mxCell id="6BwgNoAzmTN-jcqfXPyp-33" value="Courses?" style="rhombus;whiteSpace=wrap;html=1;" vertex="1" parent="1">
          <mxGeometry x="595" y="520" width="80" height="80" as="geometry" />
        </mxCell>
        <mxCell id="6BwgNoAzmTN-jcqfXPyp-38" value="" style="edgeStyle=orthogonalEdgeStyle;rounded=0;orthogonalLoop=1;jettySize=auto;html=1;" edge="1" parent="1" source="6BwgNoAzmTN-jcqfXPyp-35" target="6BwgNoAzmTN-jcqfXPyp-37">
          <mxGeometry relative="1" as="geometry" />
        </mxCell>
        <mxCell id="6BwgNoAzmTN-jcqfXPyp-35" value="Assignments?" style="rhombus;whiteSpace=wrap;html=1;" vertex="1" parent="1">
          <mxGeometry x="595" y="680" width="80" height="80" as="geometry" />
        </mxCell>
        <mxCell id="6BwgNoAzmTN-jcqfXPyp-37" value="Profile?" style="rhombus;whiteSpace=wrap;html=1;" vertex="1" parent="1">
          <mxGeometry x="595" y="840" width="80" height="80" as="geometry" />
        </mxCell>
      </root>
    </mxGraphModel>
  </diagram>
</mxfile>
